<?xml version="1.0" standalone="no"?>
<!DOCTYPE svg PUBLIC "-//W3C//DTD SVG 20010904//EN"
 "http://www.w3.org/TR/2001/REC-SVG-20010904/DTD/svg10.dtd">
<svg version="1.0" xmlns="http://www.w3.org/2000/svg"
 width="128.000000pt" height="128.000000pt" viewBox="0 0 128.000000 128.000000"
 preserveAspectRatio="xMidYMid meet">

<g transform="translate(0.000000,128.000000) scale(0.100000,-0.100000)"
fill="#000000" stroke="none">
<path d="M880 1219 c-55 -25 -105 -71 -133 -124 -17 -31 -22 -58 -22 -115 0
-83 15 -122 68 -178 l31 -32 -64 -65 -64 -65 -88 0 c-75 0 -91 3 -108 20 -25
25 -55 25 -80 0 -25 -25 -25 -55 0 -80 25 -25 55 -25 80 0 11 11 29 20 40 20
19 0 20 -7 20 -180 0 -173 1 -180 20 -180 19 0 20 7 20 180 l0 180 52 0 c52 0
53 1 128 75 l75 74 45 -15 c161 -56 339 73 340 246 0 182 -197 313 -360 239z
m80 -133 l0 -113 75 -84 c83 -93 83 -98 0 -120 -140 -38 -283 78 -273 223 6
80 47 143 117 180 82 43 81 45 81 -86z m137 78 c43 -25 85 -84 98 -136 l7 -28
-101 0 -101 0 0 101 0 101 28 -7 c15 -3 46 -17 69 -31z m103 -217 c0 -7 -12
-37 -26 -66 l-26 -52 -30 28 c-16 15 -43 45 -60 66 l-30 37 86 0 c64 0 86 -3
86 -13z m-724 -318 c10 -17 -13 -36 -27 -22 -12 12 -4 33 11 33 5 0 12 -5 16
-11z"/>
<path d="M600 1120 c-11 -11 -20 -31 -20 -44 0 -31 -77 -100 -100 -90 -38 16
-59 15 -79 -5 -28 -28 -93 -29 -121 -1 -11 11 -29 20 -40 20 -29 0 -60 -35
-60 -68 0 -36 -37 -72 -73 -72 -32 0 -67 -32 -67 -60 0 -26 34 -60 60 -60 29
0 60 35 60 68 0 36 37 72 73 72 15 0 36 9 47 20 13 13 33 20 60 20 27 0 47 -7
60 -20 11 -11 29 -20 40 -20 18 0 52 26 61 46 2 5 28 30 57 55 39 34 59 45 77
42 27 -6 65 27 65 57 0 11 -9 29 -20 40 -11 11 -29 20 -40 20 -11 0 -29 -9
-40 -20z m56 -31 c10 -17 -13 -36 -27 -22 -12 12 -4 33 11 33 5 0 12 -5 16
-11z m-400 -140 c10 -17 -13 -36 -27 -22 -12 12 -4 33 11 33 5 0 12 -5 16 -11z
m200 0 c10 -17 -13 -36 -27 -22 -12 12 -4 33 11 33 5 0 12 -5 16 -11z m-340
-140 c10 -17 -13 -36 -27 -22 -12 12 -4 33 11 33 5 0 12 -5 16 -11z"/>
<path d="M127 672 l-87 -87 0 -253 c0 -239 1 -253 20 -272 19 -19 33 -20 260
-20 227 0 241 1 260 20 13 13 20 33 20 60 l0 40 320 0 c313 0 320 0 320 20 0
13 -7 20 -20 20 -19 0 -20 8 -22 248 l-3 247 -75 0 -75 0 -3 -57 -3 -57 -57
-3 -57 -3 -3 -57 -3 -57 -57 -3 -57 -3 -3 -57 -3 -57 -57 -3 -57 -3 -3 -68 -3
-67 -69 0 c-57 0 -74 4 -90 20 -11 11 -29 20 -40 20 -26 0 -60 -34 -60 -60 0
-11 9 -29 20 -40 25 -25 55 -25 80 0 30 30 42 25 38 -17 l-3 -38 -235 0 -235
0 -3 238 -2 237 60 0 c82 0 100 18 100 100 l0 60 156 0 c147 0 156 -1 161 -20
3 -11 14 -20 24 -20 25 0 25 34 -1 60 -18 18 -33 20 -193 20 l-172 0 -88 -88z
m69 -58 c-3 -9 -21 -14 -48 -14 l-42 0 44 46 45 45 3 -31 c2 -18 1 -38 -2 -46z
m964 -184 l0 -230 -40 0 -40 0 0 230 0 230 40 0 40 0 0 -230z m-120 -60 l0
-170 -40 0 -40 0 0 170 0 170 40 0 40 0 0 -170z m-120 -60 l0 -110 -40 0 -40
0 0 110 0 110 40 0 40 0 0 -110z m-120 -60 l0 -50 -40 0 -40 0 0 50 0 50 40 0
40 0 0 -50z m-304 -61 c10 -17 -13 -36 -27 -22 -12 12 -4 33 11 33 5 0 12 -5
16 -11z"/>
<path d="M300 600 c0 -16 7 -20 30 -20 23 0 30 4 30 20 0 16 -7 20 -30 20 -23
0 -30 -4 -30 -20z"/>
<path d="M140 500 c0 -18 7 -20 60 -20 53 0 60 2 60 20 0 18 -7 20 -60 20 -53
0 -60 -2 -60 -20z"/>
<path d="M300 500 c0 -17 7 -20 50 -20 43 0 50 3 50 20 0 17 -7 20 -50 20 -43
0 -50 -3 -50 -20z"/>
<path d="M440 500 c0 -16 7 -20 30 -20 23 0 30 4 30 20 0 16 -7 20 -30 20 -23
0 -30 -4 -30 -20z"/>
<path d="M140 400 c0 -17 7 -20 40 -20 33 0 40 3 40 20 0 17 -7 20 -40 20 -33
0 -40 -3 -40 -20z"/>
<path d="M260 400 c0 -19 7 -20 120 -20 113 0 120 1 120 20 0 19 -7 20 -120
20 -113 0 -120 -1 -120 -20z"/>
<path d="M140 300 c0 -19 7 -20 100 -20 93 0 100 1 100 20 0 19 -7 20 -100 20
-93 0 -100 -1 -100 -20z"/>
<path d="M380 300 c0 -18 7 -20 60 -20 53 0 60 2 60 20 0 18 -7 20 -60 20 -53
0 -60 -2 -60 -20z"/>
<path d="M140 200 c0 -17 7 -20 40 -20 33 0 40 3 40 20 0 17 -7 20 -40 20 -33
0 -40 -3 -40 -20z"/>
<path d="M260 200 c0 -18 7 -20 60 -20 53 0 60 2 60 20 0 18 -7 20 -60 20 -53
0 -60 -2 -60 -20z"/>
</g>
</svg>
