<?xml version="1.0" standalone="no"?>
<!DOCTYPE svg PUBLIC "-//W3C//DTD SVG 20010904//EN"
 "http://www.w3.org/TR/2001/REC-SVG-20010904/DTD/svg10.dtd">
<svg version="1.0" xmlns="http://www.w3.org/2000/svg"
 width="545.000000pt" height="92.000000pt" viewBox="0 0 545.000000 92.000000"
 preserveAspectRatio="xMidYMid meet">

<g transform="translate(0.000000,92.000000) scale(0.100000,-0.100000)"
fill="#000000" stroke="none">
<path d="M4120 485 l0 -75 -49 0 -50 0 -4 53 c-2 28 -4 -57 -5 -190 l-2 -243
60 0 60 0 0 265 c0 146 -2 265 -5 265 -3 0 -5 -34 -5 -75z"/>
<path d="M4550 496 c0 -3 9 -10 20 -16 11 -6 20 -8 20 -6 0 3 -9 10 -20 16
-11 6 -20 8 -20 6z"/>
<path d="M5420 470 c0 -29 -2 -30 -44 -30 -38 0 -45 3 -49 23 -2 12 -5 -49 -6
-137 -1 -133 -3 -157 -15 -153 -8 3 -120 68 -248 143 -247 145 -264 155 -234
130 18 -15 14 -16 -62 -16 -64 0 -92 5 -125 21 -92 46 -6 -8 334 -210 339
-201 359 -211 408 -211 l51 0 0 235 c0 129 -2 235 -5 235 -3 0 -5 -13 -5 -30z"/>
<path d="M1481 454 c0 -11 3 -14 6 -6 3 7 2 16 -1 19 -3 4 -6 -2 -5 -13z"/>
<path d="M1812 238 l-2 -208 58 0 57 0 -4 187 c-2 104 -6 178 -8 166 -4 -20
-11 -23 -48 -23 l-44 0 -4 43 c-2 23 -4 -51 -5 -165z"/>
<path d="M1360 394 c0 -47 -28 -103 -76 -151 -96 -97 -202 -113 -756 -113
l-388 0 0 90 0 90 -60 0 -60 0 0 -140 0 -140 433 0 c592 0 718 13 850 83 91
48 165 149 172 235 1 20 1 29 -2 20 -3 -14 -15 -18 -57 -18 l-53 0 5 30 c2 17
2 30 -2 30 -3 0 -6 -7 -6 -16z"/>
</g>
</svg>
