<?xml version="1.0" standalone="no"?>
<!DOCTYPE svg PUBLIC "-//W3C//DTD SVG 20010904//EN"
 "http://www.w3.org/TR/2001/REC-SVG-20010904/DTD/svg10.dtd">
<svg version="1.0" xmlns="http://www.w3.org/2000/svg"
 width="1007.000000pt" height="261.000000pt" viewBox="0 0 1007.000000 261.000000"
 preserveAspectRatio="xMidYMid meet">
<metadata>
Created by potrace 1.16, written by Peter Selinger 2001-2019
</metadata>
<g transform="translate(0.000000,261.000000) scale(0.100000,-0.100000)"
fill="#000000" stroke="none">
<path d="M314 447 c-2 -7 -3 -82 -2 -167 l3 -155 25 0 c23 0 25 4 30 60 l5 60
52 5 c81 8 126 65 104 132 -18 53 -65 78 -144 78 -46 0 -69 -4 -73 -13z"/>
<path d="M720 449 c-63 -25 -100 -85 -100 -162 0 -66 27 -111 85 -144 92 -52
197 -13 240 91 32 76 -6 170 -86 212 -32 16 -102 18 -139 3z m140 -74 c52 -47
45 -140 -14 -176 -48 -29 -90 -25 -133 14 -30 28 -36 40 -36 74 0 44 20 80 55
100 30 17 103 10 128 -12z"/>
<path d="M1068 454 c-11 -10 -10 -306 1 -322 5 -8 17 -12 27 -10 16 3 20 14
22 63 4 68 11 80 44 72 15 -4 29 -21 41 -49 29 -70 50 -92 81 -84 l27 7 -30
54 c-17 30 -31 59 -31 64 0 5 14 23 30 39 41 41 41 89 1 134 -28 32 -32 33
-118 36 -48 2 -91 0 -95 -4z"/>
<path d="M1580 338 c0 -104 3 -128 20 -155 38 -63 120 -81 181 -40 52 35 59
58 59 195 l0 123 -27 -3 -28 -3 -3 -115 c-2 -101 -5 -117 -24 -137 -27 -29
-71 -30 -98 -3 -18 18 -20 33 -20 140 l0 120 -30 0 -30 0 0 -122z"/>
<path d="M1972 293 c3 -160 4 -168 23 -168 19 0 20 8 23 103 1 56 6 102 11
102 5 0 28 -21 51 -47 109 -121 153 -164 162 -155 5 5 7 80 6 168 l-3 159 -27
3 -28 3 0 -100 c0 -56 -3 -101 -7 -101 -5 0 -50 45 -101 100 -52 55 -98 100
-103 100 -6 0 -8 -67 -7 -167z"/>
<path d="M2443 373 c-23 -49 -57 -122 -76 -164 l-36 -77 26 -5 c20 -4 29 2 45
29 20 33 21 34 88 34 67 0 68 0 89 -35 19 -33 53 -47 65 -27 2 4 -21 61 -51
127 -30 66 -63 139 -73 163 -11 23 -23 42 -28 42 -5 0 -27 -39 -49 -87z"/>
<path d="M2975 444 c-67 -35 -96 -81 -97 -153 0 -76 33 -126 105 -156 47 -19
90 -19 134 2 42 20 52 41 28 59 -15 11 -22 11 -46 -1 -41 -22 -78 -18 -115 10
-55 42 -58 123 -7 171 29 27 98 33 132 12 15 -9 23 -9 35 1 23 19 20 29 -16
51 -40 24 -111 26 -153 4z"/>
<path d="M3350 453 c-63 -25 -109 -95 -110 -164 0 -85 84 -169 169 -169 159 1
231 204 108 304 -30 24 -48 30 -95 33 -31 1 -64 0 -72 -4z m120 -70 c34 -20
50 -52 50 -99 0 -28 -8 -44 -35 -71 -33 -33 -39 -35 -83 -30 -37 4 -52 12 -74
38 -41 49 -39 100 6 145 39 39 89 45 136 17z"/>
<path d="M3690 296 l0 -166 85 0 c47 0 88 -1 93 -2 4 -2 8 9 10 24 3 27 2 27
-63 30 l-67 3 -1 135 -2 135 -27 3 -28 3 0 -165z"/>
<path d="M4045 444 c-73 -38 -99 -84 -93 -166 5 -70 27 -104 88 -135 54 -28
99 -29 149 -3 69 35 110 114 96 183 -9 41 -48 93 -89 118 -38 23 -110 25 -151
3z m138 -65 c15 -11 32 -37 38 -58 21 -71 -34 -141 -112 -141 -22 0 -41 10
-65 34 -28 28 -34 41 -34 78 1 66 42 107 111 108 22 0 47 -8 62 -21z"/>
<path d="M4426 438 c-21 -98 -53 -304 -50 -310 8 -12 42 -9 50 4 5 7 13 46 18
88 6 41 15 74 20 73 5 -1 25 -39 46 -85 20 -46 42 -83 49 -83 7 0 29 38 49 85
20 47 37 87 39 89 8 12 16 -16 26 -88 8 -66 14 -82 30 -87 35 -11 41 9 28 88
-28 174 -44 248 -53 248 -5 0 -33 -49 -61 -110 -28 -60 -54 -110 -57 -110 -4
0 -30 49 -58 110 -28 61 -56 110 -61 110 -6 0 -13 -10 -15 -22z"/>
<path d="M4857 453 c-4 -3 -7 -77 -7 -164 l0 -157 54 -6 c50 -7 115 3 142 21
16 12 34 49 34 72 0 11 -11 32 -24 48 -24 28 -24 29 -5 52 35 43 21 99 -31
126 -29 15 -150 21 -163 8z"/>
<path d="M5194 447 c-2 -7 -3 -82 -2 -167 l3 -155 25 0 25 0 3 168 2 167 -25
0 c-14 0 -28 -6 -31 -13z"/>
<path d="M5456 388 c-18 -40 -52 -113 -75 -162 -26 -55 -38 -93 -32 -99 16
-16 44 -3 61 28 15 28 21 30 83 33 63 3 67 2 84 -25 21 -34 33 -43 56 -43 25
0 22 18 -26 121 -24 52 -56 122 -72 157 -16 34 -32 62 -37 62 -5 0 -24 -33
-42 -72z"/>
<path d="M5935 428 c-3 -18 -16 -91 -29 -163 -13 -72 -23 -131 -21 -133 8 -9
46 -9 51 -1 3 6 11 45 18 87 7 42 16 76 20 75 5 -1 25 -39 45 -84 40 -89 56
-104 70 -67 26 70 72 160 78 155 3 -4 11 -41 17 -83 12 -81 32 -112 57 -87 10
10 6 47 -15 170 -15 87 -30 160 -33 163 -8 8 -28 -25 -74 -125 -24 -52 -47
-95 -50 -95 -3 0 -29 49 -57 110 -28 61 -55 110 -61 110 -6 0 -13 -15 -16 -32z"/>
<path d="M6461 438 c-5 -13 -30 -68 -56 -123 -73 -156 -85 -184 -75 -190 11
-7 60 12 60 24 0 27 34 41 95 41 61 0 65 -2 79 -29 16 -29 54 -47 69 -32 5 5
5 15 1 23 -5 7 -38 78 -74 157 -36 80 -71 146 -78 149 -6 2 -16 -7 -21 -20z"/>
<path d="M6755 448 c-74 -42 -50 -148 39 -178 44 -14 70 -43 61 -69 -9 -30
-42 -36 -87 -15 -34 15 -41 16 -49 3 -16 -26 -9 -37 36 -54 86 -33 165 3 165
75 0 48 -26 80 -89 110 -79 36 -83 100 -6 85 61 -12 79 -10 83 7 7 37 -105 63
-153 36z"/>
<path d="M7197 454 c-4 -4 -7 -78 -7 -165 l0 -157 25 -4 c13 -3 27 -3 30 0 3
3 5 36 5 74 l0 69 78 -3 77 -3 5 -70 c5 -67 6 -70 30 -70 l25 0 0 165 0 165
-27 3 c-27 3 -27 3 -30 -65 l-3 -68 -77 -3 -77 -3 -3 68 c-3 60 -6 68 -23 71
-12 2 -24 0 -28 -4z"/>
<path d="M7675 446 c-41 -18 -82 -68 -94 -114 -36 -132 105 -252 232 -198 72
30 119 126 98 198 -31 102 -141 156 -236 114z m132 -66 c45 -27 62 -84 39
-132 -53 -112 -212 -76 -209 48 3 88 92 132 170 84z"/>
<path d="M8022 293 l3 -168 25 0 c25 0 25 1 28 103 1 56 6 102 11 102 4 0 49
-47 101 -105 51 -58 97 -105 101 -105 5 0 9 77 9 171 l0 170 -27 -3 -28 -3 -3
-97 c-1 -54 -6 -98 -10 -97 -4 0 -47 45 -97 100 -49 54 -95 99 -102 99 -11 0
-13 -35 -11 -167z"/>
<path d="M8432 293 l3 -168 90 -1 c107 -1 115 1 115 32 0 23 -3 24 -76 24
l-75 0 3 43 3 42 63 3 c59 3 63 5 60 25 -3 20 -10 22 -65 25 l-63 3 0 39 0 40
75 0 75 0 0 30 0 30 -105 0 -105 0 2 -167z"/>
<path d="M8759 431 c-42 -42 -40 -84 7 -127 19 -19 41 -34 48 -34 22 0 66 -40
66 -61 0 -11 -11 -24 -25 -31 -20 -9 -33 -8 -66 7 -35 16 -42 17 -50 4 -16
-25 -10 -36 27 -54 80 -38 174 2 174 75 0 49 -22 77 -86 107 -55 26 -74 54
-54 78 15 19 47 19 80 0 27 -14 50 -5 50 21 0 20 -54 44 -100 44 -33 0 -48 -6
-71 -29z"/>
<path d="M9024 445 c-11 -28 4 -45 41 -45 l35 0 1 -47 c2 -230 2 -228 29 -228
l25 0 3 137 3 137 42 3 c37 3 42 6 42 28 0 25 0 25 -108 28 -89 2 -108 0 -113
-13z"/>
<path d="M9415 418 c-10 -24 -43 -94 -72 -157 -30 -63 -52 -120 -49 -127 7
-19 55 -4 62 20 10 31 22 36 91 36 59 0 62 -1 82 -35 19 -33 53 -47 65 -26 7
11 -136 323 -150 328 -6 2 -18 -16 -29 -39z"/>
</g>
</svg>
