<?xml version="1.0" standalone="no"?>
<!DOCTYPE svg PUBLIC "-//W3C//DTD SVG 20010904//EN"
 "http://www.w3.org/TR/2001/REC-SVG-20010904/DTD/svg10.dtd">
<svg version="1.0" xmlns="http://www.w3.org/2000/svg"
 width="128.000000pt" height="128.000000pt" viewBox="0 0 128.000000 128.000000"
 preserveAspectRatio="xMidYMid meet">

<g transform="translate(0.000000,128.000000) scale(0.100000,-0.100000)"
fill="#000000" stroke="none">
<path d="M12 1128 c-17 -17 -17 -959 0 -976 17 -17 1239 -17 1256 0 17 17 17
959 0 976 -17 17 -1239 17 -1256 0z m1216 -110 l3 -68 -591 0 -590 0 0 63 c0
35 3 67 7 70 3 4 268 6 587 5 l581 -3 3 -67z m-920 -190 l3 -68 -131 0 -130 0
0 70 0 71 128 -3 127 -3 3 -67z m302 2 l0 -70 -125 0 -125 0 0 70 0 70 125 0
125 0 0 -70z m310 0 l0 -70 -125 0 -125 0 0 70 0 70 125 0 125 0 0 -70z m310
0 l0 -70 -130 0 -130 0 0 63 c0 35 3 67 7 70 3 4 62 7 130 7 l123 0 0 -70z
m-920 -190 l0 -70 -130 0 -130 0 0 70 0 70 130 0 130 0 0 -70z m300 0 l0 -70
-125 0 -125 0 0 70 0 70 125 0 125 0 0 -70z m310 0 l0 -70 -125 0 -125 0 0 70
0 70 125 0 125 0 0 -70z m310 0 l0 -70 -130 0 -130 0 0 70 0 70 130 0 130 0 0
-70z m-922 -187 l-3 -68 -127 -3 -128 -3 0 71 0 70 130 0 131 0 -3 -67z m302
-3 l0 -70 -125 0 -125 0 0 70 0 70 125 0 125 0 0 -70z m310 0 l0 -70 -125 0
-125 0 0 70 0 70 125 0 125 0 0 -70z m310 0 l0 -71 -127 3 -128 3 -3 68 -3 67
131 0 130 0 0 -70z m-922 -187 l-3 -68 -125 0 -125 0 -3 68 -3 67 131 0 131 0
-3 -67z m302 -3 l0 -70 -125 0 -125 0 0 70 0 70 125 0 125 0 0 -70z m310 0 l0
-70 -125 0 -125 0 0 70 0 70 125 0 125 0 0 -70z m308 3 l-3 -68 -125 0 -125 0
-3 68 -3 67 131 0 131 0 -3 -67z"/>
<path d="M521 1051 c-8 -5 -11 -16 -8 -25 6 -14 37 -16 266 -16 262 0 287 3
261 35 -10 12 -55 15 -259 15 -135 0 -252 -4 -260 -9z"/>
<path d="M1103 1053 c-7 -2 -13 -13 -13 -24 0 -16 7 -19 50 -19 42 0 50 3 50
19 0 27 -48 40 -87 24z"/>
</g>
</svg>
