<?xml version="1.0" standalone="no"?>
<!DOCTYPE svg PUBLIC "-//W3C//DTD SVG 20010904//EN"
 "http://www.w3.org/TR/2001/REC-SVG-20010904/DTD/svg10.dtd">
<svg version="1.0" xmlns="http://www.w3.org/2000/svg"
 width="128.000000pt" height="128.000000pt" viewBox="0 0 128.000000 128.000000"
 preserveAspectRatio="xMidYMid meet">

<g transform="translate(0.000000,128.000000) scale(0.100000,-0.100000)"
fill="#000000" stroke="none">
<path d="M400 1193 c-28 -10 -69 -56 -75 -84 -5 -20 -14 -29 -34 -34 -16 -3
-41 -20 -57 -36 l-29 -30 0 -429 0 -430 33 -32 32 -33 310 0 309 0 30 29 c16
16 33 41 36 57 5 20 14 29 34 34 16 3 41 20 57 36 l29 30 3 328 3 328 -50 74
c-81 119 -125 173 -151 186 -18 9 -88 13 -245 12 -121 0 -227 -3 -235 -6z
m401 -158 c4 -80 6 -86 36 -117 29 -28 40 -33 98 -36 l65 -4 0 -287 c0 -210
-3 -290 -12 -299 -17 -17 -559 -17 -576 0 -17 17 -17 799 0 816 8 8 67 12 199
12 l187 0 3 -85z m124 -21 l35 -49 -25 -3 c-39 -5 -55 14 -55 66 0 25 2 43 5
40 3 -3 21 -27 40 -54z m-603 -379 l3 -365 33 -32 32 -33 245 -3 c135 -2 245
-6 245 -10 0 -29 -31 -32 -300 -32 -201 0 -279 3 -288 12 -9 9 -12 113 -12
408 0 390 2 420 32 420 4 0 9 -164 10 -365z"/>
<path d="M592 767 c-72 -72 -82 -93 -60 -115 20 -20 42 -14 74 19 l29 30 5
-122 c4 -102 8 -124 23 -133 12 -8 22 -8 35 0 14 9 18 31 22 133 l5 122 29
-30 c17 -17 37 -31 46 -31 20 0 40 19 40 40 0 20 -140 160 -160 160 -9 0 -48
-33 -88 -73z"/>
</g>
</svg>
