<?xml version="1.0" standalone="no"?>
<!DOCTYPE svg PUBLIC "-//W3C//DTD SVG 20010904//EN"
 "http://www.w3.org/TR/2001/REC-SVG-20010904/DTD/svg10.dtd">
<svg version="1.0" xmlns="http://www.w3.org/2000/svg"
 width="128.000000pt" height="128.000000pt" viewBox="0 0 128.000000 128.000000"
 preserveAspectRatio="xMidYMid meet">

<g transform="translate(0.000000,128.000000) scale(0.100000,-0.100000)"
fill="#000000" stroke="none">
<path d="M564 1191 c-49 -12 -134 -63 -160 -94 -14 -17 -37 -53 -52 -81 -22
-43 -26 -64 -26 -136 -1 -78 2 -90 33 -148 59 -109 156 -166 281 -167 60 0 86
5 131 26 117 55 184 160 184 289 -1 173 -123 305 -292 315 -38 2 -82 1 -99 -4z"/>
<path d="M327 539 c-115 -76 -221 -237 -222 -336 0 -46 4 -57 33 -85 l32 -33
470 0 470 0 32 33 c29 28 33 39 33 85 -1 100 -120 278 -230 343 l-44 25 -39
-26 c-130 -86 -313 -86 -444 0 -20 14 -39 25 -41 25 -2 0 -25 -14 -50 -31z"/>
</g>
</svg>
